<svg xmlns="http://www.w3.org/2000/svg" viewBox="0 0 3333 3135" shape-rendering="geometricPrecision" text-rendering="geometricPrecision" image-rendering="optimizeQuality" fill-rule="evenodd" clip-rule="evenodd"><path d="M2537 1293C2677 592 2404 5 1666 0 1138-4 656 341 788 1244c17 113-38 99-122 80-71-15-142-31-212-46-35 6-61 19-79 38-102 108 103 191 180 220 102 38 212 74 198 193-5 47-21 93-40 140-96 233-351 449-594 518-126 36-190 50 2 155 86 47 195 74 335 94 20 372 160 133 464 194 38 8 79 13 123 32 78 34 157 101 247 153 272 157 517 167 782-20 153-108 300-215 572-181 191 24 179 83 244-186 240-42 456-89 444-221-314-67-514-231-680-499-66-106-149-261 25-335 45-19 107-30 177-55 62-22 118-60 131-89 35-78-23-148-97-153-141-10-207 82-293 54-19-6-38-18-60-37z" fill-rule="nonzero"/></svg>